<mxfile host="app.diagrams.net" agent="Mozilla/5.0 (Windows NT 10.0; Win64; x64) AppleWebKit/537.36 (KHTML, like Gecko) Chrome/127.0.0.0 Safari/537.36" version="24.7.6">
  <diagram id="C5RBs43oDa-KdzZeNtuy" name="Page-1">
    <mxGraphModel dx="1050" dy="530" grid="1" gridSize="10" guides="1" tooltips="1" connect="1" arrows="1" fold="1" page="1" pageScale="1" pageWidth="827" pageHeight="1169" math="0" shadow="0">
      <root>
        <mxCell id="WIyWlLk6GJQsqaUBKTNV-0" />
        <mxCell id="WIyWlLk6GJQsqaUBKTNV-1" parent="WIyWlLk6GJQsqaUBKTNV-0" />
        <mxCell id="FlcV_cBEQ6A05c78GiSv-1" style="edgeStyle=orthogonalEdgeStyle;rounded=0;orthogonalLoop=1;jettySize=auto;html=1;" edge="1" parent="WIyWlLk6GJQsqaUBKTNV-1" source="FlcV_cBEQ6A05c78GiSv-0">
          <mxGeometry relative="1" as="geometry">
            <mxPoint x="380" y="220" as="targetPoint" />
          </mxGeometry>
        </mxCell>
        <mxCell id="FlcV_cBEQ6A05c78GiSv-0" value="A horror text adventure game" style="rounded=1;whiteSpace=wrap;html=1;" vertex="1" parent="WIyWlLk6GJQsqaUBKTNV-1">
          <mxGeometry x="320" y="90" width="120" height="60" as="geometry" />
        </mxCell>
        <mxCell id="FlcV_cBEQ6A05c78GiSv-7" style="edgeStyle=orthogonalEdgeStyle;rounded=0;orthogonalLoop=1;jettySize=auto;html=1;exitX=0.5;exitY=1;exitDx=0;exitDy=0;entryX=0.5;entryY=0;entryDx=0;entryDy=0;" edge="1" parent="WIyWlLk6GJQsqaUBKTNV-1" source="FlcV_cBEQ6A05c78GiSv-3" target="FlcV_cBEQ6A05c78GiSv-6">
          <mxGeometry relative="1" as="geometry" />
        </mxCell>
        <mxCell id="FlcV_cBEQ6A05c78GiSv-3" value="Game map" style="rounded=0;whiteSpace=wrap;html=1;" vertex="1" parent="WIyWlLk6GJQsqaUBKTNV-1">
          <mxGeometry x="320" y="220" width="120" height="60" as="geometry" />
        </mxCell>
        <mxCell id="FlcV_cBEQ6A05c78GiSv-8" style="edgeStyle=orthogonalEdgeStyle;rounded=0;orthogonalLoop=1;jettySize=auto;html=1;exitX=0;exitY=1;exitDx=0;exitDy=0;" edge="1" parent="WIyWlLk6GJQsqaUBKTNV-1" source="FlcV_cBEQ6A05c78GiSv-6">
          <mxGeometry relative="1" as="geometry">
            <mxPoint x="240" y="480" as="targetPoint" />
          </mxGeometry>
        </mxCell>
        <mxCell id="FlcV_cBEQ6A05c78GiSv-11" style="edgeStyle=orthogonalEdgeStyle;rounded=0;orthogonalLoop=1;jettySize=auto;html=1;exitX=0.5;exitY=1;exitDx=0;exitDy=0;" edge="1" parent="WIyWlLk6GJQsqaUBKTNV-1" source="FlcV_cBEQ6A05c78GiSv-6" target="FlcV_cBEQ6A05c78GiSv-10">
          <mxGeometry relative="1" as="geometry" />
        </mxCell>
        <mxCell id="FlcV_cBEQ6A05c78GiSv-13" style="edgeStyle=orthogonalEdgeStyle;rounded=0;orthogonalLoop=1;jettySize=auto;html=1;exitX=1;exitY=1;exitDx=0;exitDy=0;entryX=0.5;entryY=0;entryDx=0;entryDy=0;" edge="1" parent="WIyWlLk6GJQsqaUBKTNV-1" source="FlcV_cBEQ6A05c78GiSv-6" target="FlcV_cBEQ6A05c78GiSv-12">
          <mxGeometry relative="1" as="geometry" />
        </mxCell>
        <mxCell id="FlcV_cBEQ6A05c78GiSv-6" value="Room" style="rounded=1;whiteSpace=wrap;html=1;" vertex="1" parent="WIyWlLk6GJQsqaUBKTNV-1">
          <mxGeometry x="320" y="340" width="120" height="60" as="geometry" />
        </mxCell>
        <mxCell id="FlcV_cBEQ6A05c78GiSv-9" value="Items" style="rounded=1;whiteSpace=wrap;html=1;" vertex="1" parent="WIyWlLk6GJQsqaUBKTNV-1">
          <mxGeometry x="180" y="480" width="120" height="60" as="geometry" />
        </mxCell>
        <mxCell id="FlcV_cBEQ6A05c78GiSv-10" value="Objects to interact with" style="rounded=1;whiteSpace=wrap;html=1;" vertex="1" parent="WIyWlLk6GJQsqaUBKTNV-1">
          <mxGeometry x="320" y="480" width="120" height="60" as="geometry" />
        </mxCell>
        <mxCell id="FlcV_cBEQ6A05c78GiSv-12" value="Description" style="rounded=1;whiteSpace=wrap;html=1;" vertex="1" parent="WIyWlLk6GJQsqaUBKTNV-1">
          <mxGeometry x="460" y="480" width="120" height="60" as="geometry" />
        </mxCell>
        <mxCell id="FlcV_cBEQ6A05c78GiSv-16" value="Movement" style="edgeStyle=orthogonalEdgeStyle;rounded=0;orthogonalLoop=1;jettySize=auto;html=1;exitX=1;exitY=0.3333333333333333;exitDx=0;exitDy=0;exitPerimeter=0;entryX=0;entryY=0.5;entryDx=0;entryDy=0;" edge="1" parent="WIyWlLk6GJQsqaUBKTNV-1" source="FlcV_cBEQ6A05c78GiSv-14" target="FlcV_cBEQ6A05c78GiSv-6">
          <mxGeometry relative="1" as="geometry" />
        </mxCell>
        <mxCell id="FlcV_cBEQ6A05c78GiSv-40" style="edgeStyle=orthogonalEdgeStyle;rounded=0;orthogonalLoop=1;jettySize=auto;html=1;exitX=0.5;exitY=0;exitDx=0;exitDy=0;exitPerimeter=0;entryX=0.5;entryY=1;entryDx=0;entryDy=0;" edge="1" parent="WIyWlLk6GJQsqaUBKTNV-1" source="FlcV_cBEQ6A05c78GiSv-14" target="FlcV_cBEQ6A05c78GiSv-39">
          <mxGeometry relative="1" as="geometry" />
        </mxCell>
        <mxCell id="FlcV_cBEQ6A05c78GiSv-44" style="edgeStyle=orthogonalEdgeStyle;rounded=0;orthogonalLoop=1;jettySize=auto;html=1;exitX=1;exitY=1;exitDx=0;exitDy=0;exitPerimeter=0;entryX=0;entryY=0.5;entryDx=0;entryDy=0;" edge="1" parent="WIyWlLk6GJQsqaUBKTNV-1" source="FlcV_cBEQ6A05c78GiSv-14" target="FlcV_cBEQ6A05c78GiSv-30">
          <mxGeometry relative="1" as="geometry" />
        </mxCell>
        <mxCell id="FlcV_cBEQ6A05c78GiSv-14" value="Player" style="shape=umlActor;verticalLabelPosition=bottom;verticalAlign=top;html=1;outlineConnect=0;" vertex="1" parent="WIyWlLk6GJQsqaUBKTNV-1">
          <mxGeometry x="80" y="340" width="40" height="80" as="geometry" />
        </mxCell>
        <mxCell id="FlcV_cBEQ6A05c78GiSv-47" style="edgeStyle=orthogonalEdgeStyle;rounded=0;orthogonalLoop=1;jettySize=auto;html=1;entryX=0.5;entryY=1;entryDx=0;entryDy=0;" edge="1" parent="WIyWlLk6GJQsqaUBKTNV-1" source="FlcV_cBEQ6A05c78GiSv-17" target="FlcV_cBEQ6A05c78GiSv-9">
          <mxGeometry relative="1" as="geometry" />
        </mxCell>
        <mxCell id="FlcV_cBEQ6A05c78GiSv-48" style="edgeStyle=orthogonalEdgeStyle;rounded=0;orthogonalLoop=1;jettySize=auto;html=1;entryX=0.5;entryY=1;entryDx=0;entryDy=0;" edge="1" parent="WIyWlLk6GJQsqaUBKTNV-1" source="FlcV_cBEQ6A05c78GiSv-17" target="FlcV_cBEQ6A05c78GiSv-10">
          <mxGeometry relative="1" as="geometry" />
        </mxCell>
        <mxCell id="FlcV_cBEQ6A05c78GiSv-17" value="Actions" style="whiteSpace=wrap;html=1;shape=parallelogram;perimeter=parallelogramPerimeter;fixedSize=1;size=20;" vertex="1" parent="WIyWlLk6GJQsqaUBKTNV-1">
          <mxGeometry x="310" y="620" width="140" height="80" as="geometry" />
        </mxCell>
        <mxCell id="FlcV_cBEQ6A05c78GiSv-22" value="Placement" style="edgeStyle=orthogonalEdgeStyle;rounded=0;orthogonalLoop=1;jettySize=auto;html=1;exitX=0;exitY=0.3333333333333333;exitDx=0;exitDy=0;exitPerimeter=0;entryX=1;entryY=0.5;entryDx=0;entryDy=0;" edge="1" parent="WIyWlLk6GJQsqaUBKTNV-1" source="FlcV_cBEQ6A05c78GiSv-21" target="FlcV_cBEQ6A05c78GiSv-6">
          <mxGeometry relative="1" as="geometry">
            <mxPoint x="470" y="350" as="targetPoint" />
          </mxGeometry>
        </mxCell>
        <mxCell id="FlcV_cBEQ6A05c78GiSv-29" style="edgeStyle=orthogonalEdgeStyle;rounded=0;orthogonalLoop=1;jettySize=auto;html=1;exitX=1;exitY=1;exitDx=0;exitDy=0;exitPerimeter=0;" edge="1" parent="WIyWlLk6GJQsqaUBKTNV-1" source="FlcV_cBEQ6A05c78GiSv-21" target="FlcV_cBEQ6A05c78GiSv-25">
          <mxGeometry relative="1" as="geometry" />
        </mxCell>
        <mxCell id="FlcV_cBEQ6A05c78GiSv-42" style="edgeStyle=orthogonalEdgeStyle;rounded=0;orthogonalLoop=1;jettySize=auto;html=1;exitX=0.5;exitY=0;exitDx=0;exitDy=0;exitPerimeter=0;entryX=0.5;entryY=1;entryDx=0;entryDy=0;" edge="1" parent="WIyWlLk6GJQsqaUBKTNV-1" source="FlcV_cBEQ6A05c78GiSv-21" target="FlcV_cBEQ6A05c78GiSv-41">
          <mxGeometry relative="1" as="geometry" />
        </mxCell>
        <mxCell id="FlcV_cBEQ6A05c78GiSv-21" value="Monster" style="shape=umlActor;verticalLabelPosition=bottom;verticalAlign=top;html=1;outlineConnect=0;" vertex="1" parent="WIyWlLk6GJQsqaUBKTNV-1">
          <mxGeometry x="620" y="280" width="80" height="120" as="geometry" />
        </mxCell>
        <mxCell id="FlcV_cBEQ6A05c78GiSv-25" value="Actions with monster" style="whiteSpace=wrap;html=1;shape=parallelogram;perimeter=parallelogramPerimeter;fixedSize=1;" vertex="1" parent="WIyWlLk6GJQsqaUBKTNV-1">
          <mxGeometry x="650" y="530" width="90" height="100" as="geometry" />
        </mxCell>
        <mxCell id="FlcV_cBEQ6A05c78GiSv-32" value="Yes" style="edgeStyle=orthogonalEdgeStyle;rounded=0;orthogonalLoop=1;jettySize=auto;html=1;entryX=0;entryY=1;entryDx=0;entryDy=0;" edge="1" parent="WIyWlLk6GJQsqaUBKTNV-1" source="FlcV_cBEQ6A05c78GiSv-30" target="FlcV_cBEQ6A05c78GiSv-25">
          <mxGeometry relative="1" as="geometry" />
        </mxCell>
        <mxCell id="FlcV_cBEQ6A05c78GiSv-45" value="No" style="edgeStyle=orthogonalEdgeStyle;rounded=0;orthogonalLoop=1;jettySize=auto;html=1;entryX=0.5;entryY=1;entryDx=0;entryDy=0;" edge="1" parent="WIyWlLk6GJQsqaUBKTNV-1" source="FlcV_cBEQ6A05c78GiSv-30" target="FlcV_cBEQ6A05c78GiSv-17">
          <mxGeometry relative="1" as="geometry" />
        </mxCell>
        <mxCell id="FlcV_cBEQ6A05c78GiSv-30" value="If monster in room" style="rhombus;whiteSpace=wrap;html=1;" vertex="1" parent="WIyWlLk6GJQsqaUBKTNV-1">
          <mxGeometry x="340" y="780" width="80" height="80" as="geometry" />
        </mxCell>
        <mxCell id="FlcV_cBEQ6A05c78GiSv-39" value="Inventory" style="ellipse;whiteSpace=wrap;html=1;" vertex="1" parent="WIyWlLk6GJQsqaUBKTNV-1">
          <mxGeometry x="40" y="210" width="120" height="80" as="geometry" />
        </mxCell>
        <mxCell id="FlcV_cBEQ6A05c78GiSv-41" value="Progress flags" style="ellipse;whiteSpace=wrap;html=1;" vertex="1" parent="WIyWlLk6GJQsqaUBKTNV-1">
          <mxGeometry x="600" y="170" width="120" height="80" as="geometry" />
        </mxCell>
      </root>
    </mxGraphModel>
  </diagram>
</mxfile>
